<?xml version="1.0" encoding="utf-8"?>
<!-- Generator: Adobe Illustrator 24.3.0, SVG Export Plug-In . SVG Version: 6.00 Build 0)  -->
<svg version="1.1" id="레이어_1" xmlns="http://www.w3.org/2000/svg" xmlns:xlink="http://www.w3.org/1999/xlink" x="0px"
	 y="0px" viewBox="0 0 140.45 140.45" style="enable-background:new 0 0 140.45 140.45;" xml:space="preserve">
<style type="text/css">
	.st0{fill:url(#SVGID_1_);}
	.st1{fill:#FFFFFF;}
</style>
<radialGradient id="SVGID_1_" cx="-877.1182" cy="250.5977" r="87.7607" gradientTransform="matrix(1 0 0 1 921.1736 -180.3717)" gradientUnits="userSpaceOnUse">
	<stop  offset="0" style="stop-color:#005C9D"/>
	<stop  offset="1" style="stop-color:#15215E"/>
</radialGradient>
<circle class="st0" cx="70.23" cy="70.23" r="70.23"/>
<path class="st1" d="M58.88,39.59c0,0,20.72-6.98,38.6-4.8l17.45,32.5l0.87-32.92c0,0,10.25,0.2,13.3,2.82
	c0,0,13.42,28.45,6.11,49.51l-3.92,3.59c0,0-0.66-26.27-4.37-36.74c0,0,2.62,28.02-0.65,39.8c0,0-7.64,6-14.18,8.18
	c0,0-9.88-27.42-23.12-46.67c0,0,7.13,24.86,8.8,51.25c0,0-8.15,5.02-22.1,6.98C75.67,113.09,71.09,74.92,58.88,39.59z"/>
</svg>
