<?xml version="1.0" encoding="utf-8"?>
<!-- Generator: Adobe Illustrator 24.3.0, SVG Export Plug-In . SVG Version: 6.00 Build 0)  -->
<svg version="1.1" id="레이어_1" xmlns="http://www.w3.org/2000/svg" xmlns:xlink="http://www.w3.org/1999/xlink" x="0px"
	 y="0px" viewBox="0 0 481.5 140.5" style="enable-background:new 0 0 481.5 140.5;" xml:space="preserve">
<style type="text/css">
	.st0{fill:#222222;}
	.st1{fill:#00346B;}
	.st2{fill:#787878;}
	.st3{display:none;}
	.st4{display:inline;fill:#2D2D2D;}
	.st5{display:inline;fill:#434242;}
	.st6{display:inline;fill:url(#SVGID_1_);}
	.st7{display:inline;fill:#FFFFFF;}
	.st8{display:inline;}
	.st9{fill:#141414;}
</style>
<g>
	<g>
		<g>
			<g>
				<path class="st0" d="M156.5,63l-0.2-5.3h8.4c2.9,0,6.4-0.1,10.4-0.4c4-0.2,7.9-0.6,11.5-1l0.6,5.1c-3.5,0.5-7.3,0.8-11.5,1.1
					c-4.2,0.3-8.1,0.4-11.6,0.4H156.5z M171,54.8c-3.8,0-6.9-0.8-9.3-2.3c-2.4-1.5-3.6-3.7-3.6-6.5v-0.5c0-2.9,1.2-5.1,3.6-6.6
					c2.4-1.5,5.5-2.3,9.3-2.3c3.8,0,6.9,0.8,9.3,2.3c2.4,1.5,3.6,3.7,3.6,6.6V46c0,2.8-1.2,5-3.6,6.5
					C177.9,54.1,174.8,54.8,171,54.8z M164,82.6V71.4h6.4v5.4h27.5v5.8H164z M171,49.7c2.1,0,3.7-0.3,5-1c1.3-0.7,1.9-1.6,1.9-2.8
					v-0.4c0-1.2-0.6-2.1-1.9-2.8c-1.3-0.7-2.9-1-5-1c-2.1,0-3.7,0.3-5,1c-1.3,0.7-1.9,1.6-1.9,2.8v0.4c0,1.2,0.6,2.1,1.9,2.8
					C167.3,49.4,168.9,49.7,171,49.7z M166.8,69.5c0.3-3.9,0.5-6.8,0.6-8.7h6.2c-0.2,3.7-0.4,6.7-0.7,9L166.8,69.5z M178,69.6v-4.7
					h14.9v4.7H178z M189.8,72.8v-37h6.4v37H189.8z"/>
				<path class="st0" d="M203.4,72.3c3.9-2.5,7.1-5.3,9.7-8.4c2.6-3.1,4.6-6.2,5.8-9.4c1.3-3.2,1.9-6.3,1.9-9.3v-2l1.9,2h-18v-5.8
					h22.6v4.6c0,6.6-1.7,12.7-5.1,18.3c-3.4,5.6-8.4,10.7-14.8,15L203.4,72.3z M234.6,82.6V35.9h6.4v46.7H234.6z M239,58.6v-5.8h8.7
					v5.8H239z"/>
			</g>
		</g>
		<path class="st0" d="M250.1,65.6l-0.4-5.8h8.1c2.8,0,6.2-0.1,10.1-0.4c3.9-0.3,7.6-0.6,11.1-1l0.7,5.6c-3.4,0.5-7.2,0.9-11.3,1.2
			c-4.1,0.3-7.9,0.4-11.3,0.4H250.1z M269.2,55.4c0.4-2.4,0.7-4.7,0.9-6.8c0.2-2.1,0.3-3.9,0.3-5.5v-2.2l2.2,2.5h-20.1v-5.4h24.1
			v2.3c0,5.2-0.5,10.4-1.4,15.7L269.2,55.4z M257.7,82.6V69.4h6.4v7.3h27.1v5.8H257.7z M258.3,61.1V49.7h6.4v11.4H258.3z
			 M282.5,71.6V35.9h6.4v35.8H282.5z M286.5,55.2v-5.8h8.6v5.8H286.5z"/>
		<path class="st0" d="M300.2,76.1V54.5h16.7v-9.7h-16.7v-5.7h23.1v21h-16.7v10.3h4.5c2.5,0,5.2-0.1,8.1-0.4c2.8-0.2,5.6-0.6,8.4-1
			l0.8,5.5c-2.7,0.5-5.6,0.9-8.8,1.2c-3.2,0.3-6.4,0.4-9.7,0.4H300.2z M332,82.6V35.9h6.4v46.7H332z"/>
		<path class="st0" d="M345.2,72.1c4.1-4.2,7.1-8.4,8.9-12.8c1.9-4.4,2.8-9.2,2.8-14.5v-6.4h6.3v6.4c0,6-1.1,11.6-3.3,16.7
			c-2.2,5.2-5.6,10.1-10.2,14.7L345.2,72.1z M370.3,75.9l-14.1-17.3l4.7-4.1L375,71.8L370.3,75.9z M379.4,82.6V35.9h6.4v46.7H379.4z
			"/>
		<path class="st0" d="M392.7,79.3v-5.8h44v5.8H392.7z M394.6,59.7c6.1-2.8,10.5-5.7,13.2-8.7c2.7-3,4-6.1,4-9.4V38h6.4v3.5
			c0,4.6-1.7,8.9-5,12.9s-8.5,7.5-15.7,10.7L394.6,59.7z M431.4,65.2l-19.8-12.9l2.9-5.5l20.4,13.1L431.4,65.2z"/>
		<path class="st0" d="M441.3,61.2V37.9h18.4v5.5h-12.2v12.4h3c3.7,0,7.4-0.3,11.1-0.9l0.7,5.3c-1.8,0.4-3.7,0.7-5.8,0.9
			c-2,0.2-4.4,0.3-7.2,0.3H441.3z M444.2,52.1v-5.3h15.1v5.3H444.2z M449.4,82.6v-18h32.1v18H449.4z M455.8,76.9h19.4v-6.7h-19.4
			V76.9z M460.9,50.6v-5.5h7.1v5.5H460.9z M465.5,62.1V36.4h5.9v25.7H465.5z M475.4,62.1V35.9h6.1v26.2H475.4z"/>
	</g>
	<path class="st1" d="M70.2,0C31.4,0,0,31.4,0,70.2c0,38.8,31.4,70.2,70.2,70.2c38.8,0,70.2-31.4,70.2-70.2C140.5,31.4,109,0,70.2,0
		z M131.3,90.3c0,0-0.7-26.3-4.4-36.7c0,0,2.6,28-0.7,39.8c0,0-7.6,6-14.2,8.2c0,0-9.9-27.4-23.1-46.7c0,0,7.1,24.9,8.8,51.3
		c0,0-8.1,5-22.1,7c0,0-4.6-38.2-16.8-73.5c0,0,20.7-7,38.6-4.8l17.4,32.5l0.9-32.9c0,0,10.2,0.2,13.3,2.8c0,0,13.4,28.5,6.1,49.5
		L131.3,90.3z"/>
	<g>
		<path class="st2" d="M164.1,96.6h4.4l3.3,9.8h0l3.2-9.8h4.4v14.3h-2.9v-10.1h0l-3.5,10.1h-2.4l-3.5-10h0v10h-2.9V96.6z"/>
		<path class="st2" d="M188.1,96.6h10.7v2.6h-7.6v3.1h6.9v2.4h-6.9v3.5h7.7v2.6h-10.9V96.6z"/>
		<path class="st2" d="M218.7,101.4c-0.1-0.7-0.4-1.3-1-1.8c-0.6-0.5-1.3-0.7-2.1-0.7c-0.7,0-1.3,0.1-1.8,0.4
			c-0.5,0.3-0.9,0.6-1.2,1.1c-0.3,0.5-0.5,1-0.7,1.6c-0.1,0.6-0.2,1.2-0.2,1.9c0,0.6,0.1,1.2,0.2,1.8c0.1,0.6,0.4,1.1,0.7,1.5
			c0.3,0.5,0.7,0.8,1.2,1.1c0.5,0.3,1.1,0.4,1.8,0.4c0.9,0,1.7-0.3,2.2-0.9c0.6-0.6,0.9-1.4,1-2.3h3c-0.1,0.9-0.3,1.7-0.6,2.4
			c-0.3,0.7-0.8,1.3-1.3,1.9c-0.6,0.5-1.2,0.9-1.9,1.2c-0.7,0.3-1.5,0.4-2.4,0.4c-1.1,0-2.1-0.2-2.9-0.6c-0.9-0.4-1.6-0.9-2.2-1.6
			s-1.1-1.5-1.4-2.4c-0.3-0.9-0.5-1.9-0.5-2.9c0-1.1,0.2-2,0.5-3c0.3-0.9,0.8-1.7,1.4-2.4s1.3-1.2,2.2-1.6c0.9-0.4,1.9-0.6,2.9-0.6
			c0.8,0,1.5,0.1,2.2,0.3c0.7,0.2,1.3,0.6,1.9,1c0.6,0.4,1,1,1.4,1.6c0.4,0.6,0.6,1.4,0.7,2.2H218.7z"/>
		<path class="st2" d="M240.3,101.4c-0.1-0.7-0.4-1.3-1-1.8c-0.6-0.5-1.3-0.7-2.1-0.7c-0.7,0-1.3,0.1-1.8,0.4
			c-0.5,0.3-0.9,0.6-1.2,1.1c-0.3,0.5-0.5,1-0.7,1.6c-0.1,0.6-0.2,1.2-0.2,1.9c0,0.6,0.1,1.2,0.2,1.8c0.1,0.6,0.4,1.1,0.7,1.5
			c0.3,0.5,0.7,0.8,1.2,1.1c0.5,0.3,1.1,0.4,1.8,0.4c0.9,0,1.7-0.3,2.2-0.9c0.6-0.6,0.9-1.4,1-2.3h3c-0.1,0.9-0.3,1.7-0.6,2.4
			c-0.3,0.7-0.8,1.3-1.3,1.9c-0.6,0.5-1.2,0.9-1.9,1.2c-0.7,0.3-1.5,0.4-2.4,0.4c-1.1,0-2.1-0.2-2.9-0.6c-0.9-0.4-1.6-0.9-2.2-1.6
			c-0.6-0.7-1.1-1.5-1.4-2.4c-0.3-0.9-0.5-1.9-0.5-2.9c0-1.1,0.2-2,0.5-3c0.3-0.9,0.8-1.7,1.4-2.4c0.6-0.7,1.3-1.2,2.2-1.6
			c0.9-0.4,1.9-0.6,2.9-0.6c0.8,0,1.5,0.1,2.2,0.3c0.7,0.2,1.3,0.6,1.9,1c0.6,0.4,1,1,1.4,1.6c0.4,0.6,0.6,1.4,0.7,2.2H240.3z"/>
		<path class="st2" d="M256.9,96.6h3.2l5.4,14.3h-3.3l-1.1-3.2h-5.4l-1.1,3.2h-3.2L256.9,96.6z M256.6,105.3h3.7l-1.8-5.3h0
			L256.6,105.3z"/>
	</g>
	<g>
		<path class="st2" d="M281.6,99.1V111h-2.7V99.1H275v-2.5h10.4v2.5H281.6z"/>
		<path class="st2" d="M307.2,111h-10.6V96.6H307v2.5h-7.8v3.1h6.6v2.5h-6.6v3.7h7.9V111z"/>
		<path class="st2" d="M323.7,111.2c-3.9,0-7-3.3-7-7.5c0-4.2,3-7.5,7-7.5c3.3,0,5.7,1.8,6.5,4.8h-3c-0.6-1.3-1.9-2.3-3.6-2.3
			c-2.4,0-4.2,2.3-4.2,5c0,2.7,1.9,5,4.2,5c1.6,0,2.9-1,3.6-2.3h2.9C329.4,109.3,326.9,111.2,323.7,111.2z"/>
		<path class="st2" d="M351,111h-2.7v-6.1h-6.1v6.1h-2.8V96.6h2.8v5.8h6.1v-5.8h2.7V111z"/>
		<path class="st2" d="M372.8,111h-3.3l-5.9-10.2V111h-2.7V96.6h3.3l5.8,10.2V96.6h2.8V111z"/>
		<path class="st2" d="M395.6,103.7c0,4.2-3,7.5-7,7.5c-4.1,0-7-3.3-7-7.5c0-4.2,3-7.5,7-7.5C392.6,96.2,395.6,99.6,395.6,103.7z
			 M392.8,103.7c0-2.7-1.9-4.9-4.3-4.9c-2.4,0-4.3,2.2-4.3,4.9c0,2.7,1.9,4.9,4.3,4.9C390.9,108.6,392.8,106.4,392.8,103.7z"/>
		<path class="st2" d="M408,108.4h7.1v2.5h-9.9V96.6h2.8V108.4z"/>
		<path class="st2" d="M438.9,103.7c0,4.2-3,7.5-7,7.5c-4.1,0-7-3.3-7-7.5c0-4.2,3-7.5,7-7.5C436,96.2,438.9,99.6,438.9,103.7z
			 M436.2,103.7c0-2.7-1.9-4.9-4.3-4.9c-2.4,0-4.3,2.2-4.3,4.9c0,2.7,1.9,4.9,4.3,4.9C434.3,108.6,436.2,106.4,436.2,103.7z"/>
		<path class="st2" d="M460.5,111h-2.5v-1.6c-1,1.1-2.5,1.8-4.3,1.8c-3.9,0-7-3.3-7-7.5c0-4.2,3.1-7.5,7-7.5c3.2,0,5.6,1.8,6.5,4.8
			h-2.9c-0.6-1.3-1.9-2.3-3.6-2.3c-2.4,0-4.2,2.3-4.2,5c0,2.7,1.9,5,4.4,5c2,0,3.6-1.4,4.2-3.2h-3.9V103h6.4V111z"/>
		<path class="st2" d="M476.6,111h-2.8v-5.5l-4.8-8.9h3.1l3.1,6.2l3.1-6.2h3.1l-4.8,8.9V111z"/>
	</g>
</g>
<g class="st3">
	<path class="st4" d="M1299,780.5l-0.1-2.5h4c1.4,0,3.1-0.1,5-0.2c1.9-0.1,3.7-0.3,5.4-0.5l0.3,2.4c-1.7,0.2-3.5,0.4-5.5,0.5
		c-2,0.1-3.8,0.2-5.5,0.2H1299z M1305.9,776.6c-1.8,0-3.3-0.4-4.4-1.1c-1.1-0.7-1.7-1.8-1.7-3.1v-0.2c0-1.4,0.6-2.4,1.7-3.1
		c1.1-0.7,2.6-1.1,4.4-1.1c1.8,0,3.3,0.4,4.4,1.1c1.1,0.7,1.7,1.8,1.7,3.1v0.2c0,1.3-0.6,2.4-1.7,3.1
		C1309.2,776.3,1307.7,776.6,1305.9,776.6z M1302.6,789.8v-5.3h3v2.6h13.1v2.8H1302.6z M1305.9,774.2c1,0,1.8-0.2,2.4-0.5
		c0.6-0.3,0.9-0.7,0.9-1.3v-0.2c0-0.6-0.3-1-0.9-1.3c-0.6-0.3-1.4-0.5-2.4-0.5c-1,0-1.8,0.2-2.4,0.5c-0.6,0.3-0.9,0.8-0.9,1.3v0.2
		c0,0.6,0.3,1,0.9,1.3C1304.2,774,1305,774.2,1305.9,774.2z M1303.9,783.6c0.2-1.9,0.3-3.2,0.3-4.1h2.9c-0.1,1.7-0.2,3.2-0.3,4.3
		L1303.9,783.6z M1309.2,783.7v-2.3h7.1v2.3H1309.2z M1314.9,785.2v-17.6h3v17.6H1314.9z"/>
	<path class="st4" d="M1321.3,784.9c1.8-1.2,3.4-2.5,4.6-4c1.2-1.5,2.2-2.9,2.8-4.5c0.6-1.5,0.9-3,0.9-4.4v-1l0.9,1h-8.6v-2.8h10.7
		v2.2c0,3.1-0.8,6-2.4,8.7c-1.6,2.7-4,5.1-7,7.1L1321.3,784.9z M1336.2,789.8v-22.2h3v22.2H1336.2z M1338.3,778.4v-2.8h4.2v2.8
		H1338.3z"/>
	<path class="st4" d="M1343.5,781.8l-0.2-2.8h3.8c1.3,0,3-0.1,4.8-0.2c1.9-0.1,3.6-0.3,5.3-0.5l0.3,2.7c-1.6,0.2-3.4,0.4-5.4,0.5
		c-1.9,0.1-3.7,0.2-5.3,0.2H1343.5z M1352.6,776.9c0.2-1.1,0.3-2.2,0.4-3.2c0.1-1,0.2-1.9,0.2-2.6v-1l1.1,1.2h-9.6v-2.6h11.5v1.1
		c0,2.5-0.2,5-0.7,7.5L1352.6,776.9z M1347.1,789.8v-6.3h3v3.5h12.9v2.8H1347.1z M1347.4,779.6v-5.4h3v5.4H1347.4z M1358.9,784.6
		v-17h3v17H1358.9z M1360.9,776.8V774h4.1v2.8H1360.9z"/>
	<path class="st4" d="M1367.4,786.8v-10.3h7.9v-4.6h-7.9v-2.7h11v10h-8v4.9h2.1c1.2,0,2.5-0.1,3.8-0.2c1.3-0.1,2.7-0.3,4-0.5
		l0.4,2.6c-1.3,0.3-2.7,0.4-4.2,0.6c-1.5,0.1-3,0.2-4.6,0.2H1367.4z M1382.5,789.8v-22.2h3v22.2H1382.5z"/>
	<path class="st4" d="M1388.8,784.9c1.9-2,3.4-4,4.3-6.1c0.9-2.1,1.3-4.4,1.3-6.9v-3h3v3c0,2.9-0.5,5.5-1.6,8c-1,2.5-2.7,4.8-4.8,7
		L1388.8,784.9z M1400.7,786.7l-6.7-8.2l2.3-1.9l6.7,8.2L1400.7,786.7z M1405,789.8v-22.2h3v22.2H1405z"/>
	<path class="st4" d="M1411.3,788.3v-2.8h20.9v2.8H1411.3z M1412.2,779c2.9-1.3,5-2.7,6.3-4.1c1.3-1.4,1.9-2.9,1.9-4.5v-1.7h3v1.7
		c0,2.2-0.8,4.2-2.4,6.1c-1.6,1.9-4.1,3.6-7.5,5.1L1412.2,779z M1429.7,781.6l-9.4-6.1l1.4-2.6l9.7,6.2L1429.7,781.6z"/>
	<path class="st4" d="M1434.4,779.7v-11.1h8.7v2.6h-5.8v5.9h1.4c1.8,0,3.5-0.1,5.3-0.4l0.3,2.5c-0.9,0.2-1.8,0.3-2.7,0.4
		c-1,0.1-2.1,0.1-3.4,0.1H1434.4z M1435.8,775.3v-2.5h7.2v2.5H1435.8z M1438.3,789.8v-8.5h15.3v8.5H1438.3z M1441.3,787.1h9.2v-3.2
		h-9.2V787.1z M1443.7,774.7v-2.6h3.4v2.6H1443.7z M1446,780.1v-12.2h2.8v12.2H1446z M1450.7,780.1v-12.5h2.9v12.5H1450.7z"/>
	<ellipse class="st5" cx="1263.2" cy="816.2" rx="21.2" ry="2.9"/>
	
		<radialGradient id="SVGID_1_" cx="324.4067" cy="964.8171" r="41.724" gradientTransform="matrix(1 0 0 1 921.1736 -180.3717)" gradientUnits="userSpaceOnUse">
		<stop  offset="0" style="stop-color:#005C9D"/>
		<stop  offset="1" style="stop-color:#15215E"/>
	</radialGradient>
	<circle class="st6" cx="1258" cy="784.4" r="33.4"/>
	<path class="st7" d="M1252.6,769.9c0,0,9.9-3.3,18.4-2.3l8.3,15.4l0.4-15.7c0,0,4.9,0.1,6.3,1.3c0,0,6.4,13.5,2.9,23.5l-1.9,1.7
		c0,0-0.3-12.5-2.1-17.5c0,0,1.2,13.3-0.3,18.9c0,0-3.6,2.9-6.7,3.9c0,0-4.7-13-11-22.2c0,0,3.4,11.8,4.2,24.4c0,0-3.9,2.4-10.5,3.3
		C1260.6,804.8,1258.4,786.7,1252.6,769.9z"/>
	<g class="st8">
		<path class="st9" d="M1302.7,796.5h2.1l1.6,4.7h0l1.5-4.7h2.1v6.8h-1.4v-4.8h0l-1.7,4.8h-1.2l-1.7-4.8h0v4.8h-1.4V796.5z"/>
		<path class="st9" d="M1314,796.5h5.1v1.3h-3.6v1.5h3.3v1.2h-3.3v1.7h3.7v1.3h-5.2V796.5z"/>
		<path class="st9" d="M1328.6,798.8c0-0.3-0.2-0.6-0.5-0.8c-0.3-0.2-0.6-0.3-1-0.3c-0.3,0-0.6,0.1-0.8,0.2
			c-0.2,0.1-0.4,0.3-0.6,0.5c-0.1,0.2-0.3,0.5-0.3,0.7c-0.1,0.3-0.1,0.6-0.1,0.9c0,0.3,0,0.6,0.1,0.9c0.1,0.3,0.2,0.5,0.3,0.7
			c0.1,0.2,0.3,0.4,0.6,0.5c0.2,0.1,0.5,0.2,0.8,0.2c0.4,0,0.8-0.1,1.1-0.4c0.3-0.3,0.4-0.6,0.5-1.1h1.4c0,0.4-0.1,0.8-0.3,1.1
			c-0.2,0.3-0.4,0.6-0.6,0.9c-0.3,0.2-0.6,0.4-0.9,0.6c-0.3,0.1-0.7,0.2-1.1,0.2c-0.5,0-1-0.1-1.4-0.3c-0.4-0.2-0.8-0.4-1.1-0.8
			c-0.3-0.3-0.5-0.7-0.7-1.1c-0.2-0.4-0.2-0.9-0.2-1.4c0-0.5,0.1-1,0.2-1.4c0.2-0.4,0.4-0.8,0.7-1.1c0.3-0.3,0.6-0.6,1.1-0.8
			c0.4-0.2,0.9-0.3,1.4-0.3c0.4,0,0.7,0.1,1.1,0.2c0.3,0.1,0.6,0.3,0.9,0.5c0.3,0.2,0.5,0.5,0.6,0.8c0.2,0.3,0.3,0.7,0.3,1H1328.6z"
			/>
		<path class="st9" d="M1338.9,798.8c0-0.3-0.2-0.6-0.5-0.8c-0.3-0.2-0.6-0.3-1-0.3c-0.3,0-0.6,0.1-0.8,0.2
			c-0.2,0.1-0.4,0.3-0.6,0.5c-0.1,0.2-0.3,0.5-0.3,0.7c-0.1,0.3-0.1,0.6-0.1,0.9c0,0.3,0,0.6,0.1,0.9c0.1,0.3,0.2,0.5,0.3,0.7
			c0.1,0.2,0.3,0.4,0.6,0.5c0.2,0.1,0.5,0.2,0.8,0.2c0.4,0,0.8-0.1,1.1-0.4c0.3-0.3,0.4-0.6,0.5-1.1h1.4c0,0.4-0.1,0.8-0.3,1.1
			c-0.2,0.3-0.4,0.6-0.6,0.9c-0.3,0.2-0.6,0.4-0.9,0.6c-0.3,0.1-0.7,0.2-1.1,0.2c-0.5,0-1-0.1-1.4-0.3c-0.4-0.2-0.8-0.4-1.1-0.8
			c-0.3-0.3-0.5-0.7-0.7-1.1c-0.2-0.4-0.2-0.9-0.2-1.4c0-0.5,0.1-1,0.2-1.4c0.2-0.4,0.4-0.8,0.7-1.1c0.3-0.3,0.6-0.6,1.1-0.8
			c0.4-0.2,0.9-0.3,1.4-0.3c0.4,0,0.7,0.1,1.1,0.2c0.3,0.1,0.6,0.3,0.9,0.5c0.3,0.2,0.5,0.5,0.6,0.8c0.2,0.3,0.3,0.7,0.3,1H1338.9z"
			/>
		<path class="st9" d="M1346.8,796.5h1.5l2.5,6.8h-1.6l-0.5-1.5h-2.5l-0.5,1.5h-1.5L1346.8,796.5z M1346.7,800.7h1.8l-0.9-2.5h0
			L1346.7,800.7z"/>
	</g>
	<g class="st8">
		<path class="st1" d="M1358.5,797.7v5.6h-1.3v-5.6h-1.8v-1.2h5v1.2H1358.5z"/>
		<path class="st1" d="M1370.7,803.3h-5.1v-6.8h5v1.2h-3.7v1.5h3.2v1.2h-3.2v1.7h3.8V803.3z"/>
		<path class="st1" d="M1378.6,803.5c-1.9,0-3.3-1.6-3.3-3.6c0-2,1.4-3.6,3.3-3.6c1.5,0,2.7,0.9,3.1,2.3h-1.4
			c-0.3-0.6-0.9-1.1-1.7-1.1c-1.1,0-2,1.1-2,2.4c0,1.3,0.9,2.4,2,2.4c0.8,0,1.4-0.5,1.7-1.1h1.4
			C1381.2,802.6,1380.1,803.5,1378.6,803.5z"/>
		<path class="st1" d="M1391.5,803.3h-1.3v-2.9h-2.9v2.9h-1.3v-6.8h1.3v2.7h2.9v-2.7h1.3V803.3z"/>
		<path class="st1" d="M1401.9,803.3h-1.6l-2.8-4.9v4.9h-1.3v-6.8h1.6l2.8,4.9v-4.9h1.3V803.3z"/>
		<path class="st1" d="M1412.7,799.9c0,2-1.4,3.6-3.3,3.6c-1.9,0-3.3-1.6-3.3-3.6c0-2,1.4-3.6,3.3-3.6
			C1411.3,796.3,1412.7,797.9,1412.7,799.9z M1411.4,799.9c0-1.3-0.9-2.3-2-2.3c-1.1,0-2,1.1-2,2.3c0,1.3,0.9,2.3,2,2.3
			C1410.5,802.2,1411.4,801.2,1411.4,799.9z"/>
		<path class="st1" d="M1418.6,802.1h3.4v1.2h-4.7v-6.8h1.3V802.1z"/>
		<path class="st1" d="M1433.3,799.9c0,2-1.4,3.6-3.3,3.6c-1.9,0-3.3-1.6-3.3-3.6c0-2,1.4-3.6,3.3-3.6
			C1431.9,796.3,1433.3,797.9,1433.3,799.9z M1432,799.9c0-1.3-0.9-2.3-2-2.3c-1.1,0-2,1.1-2,2.3c0,1.3,0.9,2.3,2,2.3
			C1431.1,802.2,1432,801.2,1432,799.9z"/>
		<path class="st1" d="M1443.6,803.3h-1.2v-0.7c-0.5,0.5-1.2,0.9-2,0.9c-1.9,0-3.3-1.6-3.3-3.6s1.5-3.6,3.3-3.6
			c1.5,0,2.7,0.9,3.1,2.3h-1.4c-0.3-0.6-0.9-1.1-1.7-1.1c-1.1,0-2,1.1-2,2.4c0,1.3,0.9,2.4,2.1,2.4c1,0,1.7-0.7,2-1.5h-1.9v-1.2h3
			V803.3z"/>
		<path class="st1" d="M1451.2,803.3h-1.3v-2.6l-2.3-4.2h1.5l1.5,2.9l1.5-2.9h1.5l-2.3,4.2V803.3z"/>
	</g>
</g>
</svg>
